<?xml version="1.0" encoding="utf-8"?>
<svg version="1.1" xmlns="http://www.w3.org/2000/svg" xmlns:xlink="http://www.w3.org/1999/xlink" x="0px" y="0px"
	 viewBox="0 0 32.5 50.4" style="enable-background:new 0 0 32.5 50.4;" xml:space="preserve" width="33" height="50">
<g>
	<path fill="param(color) #ff0000" d="M16.3,50.4C16.3,50.4,16.3,50.4,16.3,50.4c0,0,16.3-24.9,16.3-33.1C32.5,5.3,24.3,0,16.3,0C8.2,0,0,5.3,0,17.3
		C0,25.5,16.2,50.4,16.3,50.4L16.3,50.4z M10.6,16.6c0-3.1,2.5-5.6,5.6-5.6s5.6,2.5,5.6,5.6s-2.5,5.6-5.6,5.6
		C13.1,22.3,10.6,19.7,10.6,16.6z"/>
</g>
</svg>
